
<svg version="2.0" xmlns="http://www.w3.org/2000/svg" viewBox="0 0 29445 7342">
  <g fill="#000000" paint-order="stroke fill" stroke="#ffffff" stroke-width="160" stroke-linecap="round">
    <path d="M5165 7164c-182-26-256-56-341-136-100-93-184-243-214-381-6-27-10-104-9-172 0-68-2-129-6-135-8-13-37 2-89 46-53 45-161 89-283 113-127 26-199 26-325 1-119-25-199-56-263-101-25-19-60-44-77-57-19-13-35-19-41-13-5 5-8 65-8 134 1 69-3 147-9 174-44 199-185 396-333 463-90 41-172 54-332 54-162-1-249-12-433-59-396-101-747-311-1045-625-221-232-357-460-390-650-21-119-83-210-428-631-298-363-369-472-369-568 0-40 26-79 39-92 11-11 56-39 101-39 83 0 174 46 312 158 92 73 95 69 78-96-23-226-1-372 63-417 26-18 90-20 120-3 38 19 93 71 138 128 53 68 65 80 77 80 5 0 12-42 14-92 5-109 32-182 84-228 76-66 165-59 244 20 42 42 55 49 112 59 36 6 103 11 149 11 201 0 326 36 716 204 100 42 148 53 168 36 22-18 19-86-14-433-39-426-48-536-56-627s-15-168-15-172c0-17-60-5-145 28-222 88-307 113-385 114-169 0-261-86-373-350-111-263-183-534-231-871-40-275-46-292-156-414-82-92-102-125-98-163 3-24 8-27 43-30 22-2 77 2 123 9 60 9 86 9 94 1s7-40-2-119c-11-92-11-113 1-138 30-63 91-34 170 79 67 97 82 102 129 45 63-80 93-131 136-127 56 8 58 103 59 248 1 204-1 199 104 353 38 56 103 154 143 218 74 117 74 117 109 95 51-31 204-164 275-237 74-79 115-138 159-232 68-143 75-203 65-547-3-107 0-148 14-199 36-132 102-231 194-290 69-44 124-61 235-71 111-11 123-16 194-80 98-89 349-200 543-240 129-27 230-23 373 15 188 50 393 145 480 225 71 64 83 69 194 80 111 10 166 27 235 71 92 59 158 158 194 290 14 51 17 92 14 199-10 344-3 404 65 547 44 94 85 153 159 232 71 73 224 206 275 237 35 22 35 22 109-95 40-64 105-162 143-218 105-154 103-149 104-353-16-264 43-247 59-248 36 0 73 47 136 127 47 57 62 52 129-45 79-113 140-142 170-79 12 25 12 46 1 138-9 79-10 111-2 119s34 8 94-1c46-7 101-11 123-9 35 3 40 6 43 30 4 38-16 71-98 163-110 122-116 139-156 414-37 263-80 450-149 651-152 445-253 570-455 570-78-1-163-26-385-114-49-19-102-35-117-36-31 0-29-11-53 315-9 110-29 336-45 502-34 346-37 415-15 433 20 17 68 6 168-36 390-168 515-204 716-204 46 0 113-5 149-11 57-10 70-17 112-59 79-79 168-86 244-20 52 46 79 119 84 228 2 50 9 92 14 92 12 0 24-12 77-80 45-57 100-109 138-128 30-17 94-15 120 3 64 45 86 191 63 417-17 165-14 169 78 96 138-112 229-158 312-158 45 0 86 27 100 39 15 13 40 52 40 92 0 96-71 205-369 568-345 421-407 512-428 631-61 353-499 847-975 1099-187 99-432 181-643 216-93 15-307 27-360 19z"/>
  </g>
  <g fill="#e53434">
    <path d="M5254 6860c-130-19-233-83-293-184-51-85-51-122-2-247 54-137 122-246 229-366 118-131 273-257 568-458 135-93 270-192 300-220 46-43 54-56 54-87s-9-47-57-98c-71-77-104-95-146-81-17 6-105 60-196 120-291 191-678 405-914 506-84 36-97 46-257 201-257 248-276 258-480 258-205 0-220-9-484-263-153-147-184-172-243-197-239-102-641-323-934-515-91-60-179-114-196-120-42-14-75 4-146 81-48 51-57 67-57 98s8 44 54 87c30 28 165 127 300 220 295 201 450 327 568 458 107 120 175 229 229 366 49 125 49 162-2 247-92 153-274 217-517 180-312-47-740-268-989-509-225-218-382-484-383-647 0-57 19-100 44-100 28 0 97 63 181 166 137 167 215 250 337 361 262 236 537 419 619 411 31-3 36-9 82-97 68-132 67-137-97-253-56-40-132-96-171-126-293-226-610-613-781-954-116-232-139-369-81-483 32-64 103-130 173-161 133-59 351-13 654 137 192 95 356 203 523 345 248 210 253 212 364 101 90-91 93-107 26-181-79-88-129-224-183-499-127-658-154-1558-65-2192 63-454 205-883 373-1134 72-107 220-263 337-353 146-113 340-198 451-198 103 0 231 43 364 123 136 81 346 284 442 428 168 251 310 680 373 1134 89 635 62 1544-65 2202-54 275-104 411-183 499-67 74-64 90 26 181 111 111 116 109 364-101 167-142 331-250 523-345 303-150 521-196 654-137 117 52 195 158 203 276 16 242-338 820-719 1173-111 103-187 164-344 275-164 116-165 121-97 253 46 88 51 94 82 97 82 8 357-175 619-411 122-111 200-194 337-361 84-103 153-166 181-166 25 0 44 43 44 100-1 163-158 429-383 647-247 240-678 462-984 508-105 16-148 17-229 5z"/>
    <path d="M1972 2955c-36-26-67-92-121-258-91-278-155-566-137-612 5-14 9-15 22-4 26 22 70 91 140 221 117 216 175 287 255 308 65 18 116-14 210-130 43-52 93-103 113-114 37-21 37-21 52-1 20 26 13 99-17 157-86 171-313 397-436 434-57 17-54 17-81-1z"/>
    <path d="M6053 2956c-120-38-348-267-432-434-30-58-37-131-17-157 15-20 15-20 52 1 20 11 70 62 113 114 94 116 145 148 210 130 80-21 138-92 255-308 70-130 114-199 140-221 13-11 17-10 22 4 18 46-46 334-137 612-54 166-85 232-121 258-26 18-30 18-85 1z"/>
  </g>
  <g fill="#000000" paint-order="stroke fill" stroke="#ffffff" stroke-width="160" stroke-linecap="round">
    <text font-size="5000" font-family="Nunito" font-weight="700" x="9000" y="5456">Mantella</text>
  </g>
</svg>