<svg version="2.0" xmlns="http://www.w3.org/2000/svg" viewBox="-4100 -200 8200 7400">
  <g fill="#000000" paint-order="stroke fill" stroke="#ffffff" stroke-width="160" stroke-linecap="round">
    <path d="M 0 0 c 53 -2 109 3 233 37 c 188 50 393 145 480 225 c 71 64 83 69 194 80 c 111 10 166 27 235 71 c 92 59 158 158 194 290 c 14 51 17 92 14 199 c -10 344 -3 404 65 547 c 44 94 85 153 159 232 c 71 73 224 206 275 237 c 35 22 35 22 109 -95 c 40 -64 105 -162 143 -218 c 105 -154 103 -149 104 -353 c -16 -264 43 -247 59 -248 c 36 0 73 47 136 127 c 47 57 62 52 129 -45 c 79 -113 140 -142 170 -79 c 12 25 12 46 1 138 c -9 79 -10 111 -2 119 c 8 8 34 8 94 -1 c 46 -7 101 -11 123 -9 c 35 3 40 6 43 30 c 4 38 -16 71 -98 163 c -110 122 -116 139 -156 414 c -37 263 -80 450 -149 651 c -152 445 -253 570 -455 570 c -78 -1 -163 -26 -385 -114 c -49 -19 -102 -35 -117 -36 c -31 0 -29 -11 -53 315 c -9 110 -29 336 -45 502 c -34 346 -37 415 -15 433 c 20 17 68 6 168 -36 c 390 -168 515 -204 716 -204 c 46 0 113 -5 149 -11 c 57 -10 70 -17 112 -59 c 79 -79 168 -86 244 -20 c 52 46 79 119 84 228 c 2 50 9 92 14 92 c 12 0 24 -12 77 -80 c 45 -57 100 -109 138 -128 c 30 -17 94 -15 120 3 c 64 45 86 191 63 417 c -17 165 -14 169 78 96 c 138 -112 229 -158 312 -158 c 45 0 86 27 100 39 c 15 13 40 52 40 92 c 0 96 -71 205 -369 568 c -345 421 -407 512 -428 631 c -61 353 -499 847 -975 1099 c -187 99 -432 181 -643 216 c -93 15 -307 27 -360 19 c -182 -26 -256 -56 -341 -136 c -100 -93 -184 -243 -214 -381 c -6 -27 -10 -104 -9 -172 c 0 -68 -2 -129 -6 -135 c -8 -13 -37 2 -89 46 c -53 45 -161 89 -283 113 c -61 14 -99 19 -183 22 c -84 -3 -122 -8 -183 -22 c -122 -24 -230 -68 -283 -113 c -52 -44 -81 -59 -89 -46 c -4 6 -6 67 -6 135 c 1 68 -3 145 -9 172 c -30 138 -114 288 -214 381 c -85 80 -159 110 -341 136 c -53 8 -267 -4 -360 -19 c -211 -35 -456 -117 -643 -216 c -476 -252 -914 -746 -975 -1099 c -21 -119 -83 -210 -428 -631 c -298 -363 -369 -472 -369 -568 c 0 -40 25 -79 40 -92 c 14 -12 55 -39 100 -39 c 83 0 174 46 312 158 c 92 73 95 69 78 -96 c -23 -226 -1 -372 63 -417 c 26 -18 90 -20 120 -3 c 38 19 93 71 138 128 c 53 68 65 80 77 80 c 5 0 12 -42 14 -92 c 5 -109 32 -182 84 -228 c 76 -66 165 -59 244 20 c 42 42 55 49 112 59 c 36 6 103 11 149 11 c 201 0 326 36 716 204 c 100 42 148 53 168 36 c 22 -18 19 -87 -15 -433 c -16 -166 -36 -392 -45 -502 c -24 -326 -22 -315 -53 -315 c -15 1 -68 17 -117 36 c -222 88 -307 113 -385 114 c -202 0 -303 -125 -455 -570 c -69 -201 -112 -388 -149 -651 c -40 -275 -46 -292 -156 -414 c -82 -92 -102 -125 -98 -163 c 3 -24 8 -27 43 -30 c 22 -2 77 2 123 9 c 60 9 86 9 94 1 c 8 -8 7 -40 -2 -119 c -11 -92 -11 -113 1 -138 c 30 -63 91 -34 170 79 c 67 97 82 102 129 45 c 63 -80 100 -127 136 -127 c 16 1 75 -16 59 248 c 1 204 -1 199 104 353 c 38 56 103 154 143 218 c 74 117 74 117 109 95 c 51 -31 204 -164 275 -237 c 74 -79 115 -138 159 -232 c 68 -143 75 -203 65 -547 c -3 -107 0 -148 14 -199 c 36 -132 102 -231 194 -290 c 69 -44 124 -61 235 -71 c 111 -11 123 -16 194 -80 c 87 -80 292 -175 480 -225 c 124 -34 180 -39 233 -37 Z"/>
  </g>
  <g fill="#e53434">
    <path d="M 0 304 c 103 0 231 43 364 123 c 136 81 346 284 442 428 c 169 254 257 512 329 862 c 27 131 27 139 44 272 c 56 349 75 703 62 1158 c -8 280 -23 462 -127 1044 c -54 302 -104 411 -183 499 c -67 74 -64 90 26 181 c 111 111 116 109 364 -101 c 167 -142 331 -250 523 -345 c 303 -150 521 -196 654 -137 c 117 52 195 158 203 276 c 16 242 -338 820 -719 1173 c -111 103 -187 164 -344 275 c -164 116 -165 121 -97 253 c 46 88 51 94 82 97 c 82 8 357 -175 619 -411 c 122 -111 200 -194 337 -361 c 84 -103 153 -166 181 -166 c 25 0 44 43 44 100 c -1 163 -158 429 -383 647 c -247 240 -678 462 -984 508 c -105 16 -148 17 -229 5 c -130 -19 -233 -83 -293 -184 c -51 -85 -51 -122 -2 -247 c 54 -137 122 -246 229 -366 c 118 -131 273 -257 568 -458 c 135 -93 270 -192 300 -220 c 46 -43 54 -56 54 -87 c 0 -31 -9 -47 -57 -98 c -71 -77 -104 -95 -146 -81 c -17 6 -105 60 -196 120 c -291 191 -678 405 -914 506 c -84 36 -97 46 -257 201 c -257 248 -276 258 -494 258 c -218 0 -237 -10 -494 -258 c -160 -155 -173 -165 -257 -201 c -236 -101 -623 -315 -914 -506 c -91 -60 -179 -114 -196 -120 c -42 -14 -75 4 -146 81 c -48 51 -57 67 -57 98 c 0 31 8 44 54 87 c 30 28 165 127 300 220 c 295 201 450 327 568 458 c 107 120 175 229 229 366 c 49 125 49 162 -2 247 c -60 101 -163 165 -293 184 c -81 12 -124 11 -229 -5 c -306 -46 -737 -268 -984 -508 c -225 -218 -382 -484 -383 -647 c 0 -57 19 -100 44 -100 c 28 0 97 63 181 166 c 137 167 215 250 337 361 c 262 236 537 419 619 411 c 31 -3 36 -9 82 -97 c 68 -132 67 -137 -97 -253 c -157 -111 -233 -172 -344 -275 c -381 -353 -735 -931 -719 -1173 c 8 -118 86 -224 203 -276 c 133 -59 351 -13 654 137 c 192 95 356 203 523 345 c 248 210 253 212 364 101 c 90 -91 93 -107 26 -181 c -79 -88 -129 -197 -183 -499 c -104 -582 -119 -764 -127 -1044 c -13 -455 6 -809 62 -1158 c 17 -133 17 -141 44 -272 c 72 -350 160 -608 329 -862 c 96 -144 306 -347 442 -428 c 133 -80 261 -123 364 -123 Z"/>
    <path d="M 2010 2766 c -120 -38 -348 -267 -432 -434 c -30 -58 -37 -131 -17 -157 c 15 -20 15 -20 52 1 c 20 11 70 62 113 114 c 94 116 145 148 210 130 c 80 -21 138 -92 255 -308 c 70 -130 114 -199 140 -221 c 13 -11 17 -10 22 4 c 18 46 -46 334 -137 612 c -54 166 -85 232 -121 258 c -26 18 -30 18 -85 1 Z"/>
    <path d="M -2010 2766 c 120 -38 348 -267 432 -434 c 30 -58 37 -131 17 -157 c -15 -20 -15 -20 -52 1 c -20 11 -70 62 -113 114 c -94 116 -145 148 -210 130 c -80 -21 -138 -92 -255 -308 c -70 -130 -114 -199 -140 -221 c -13 -11 -17 -10 -22 4 c -18 46 46 334 137 612 c 54 166 85 232 121 258 c 26 18 30 18 85 1 Z"/>
  </g>
</svg>