<?xml version="1.0" standalone="no"?>
<!DOCTYPE svg PUBLIC "-//W3C//DTD SVG 20010904//EN"
 "http://www.w3.org/TR/2001/REC-SVG-20010904/DTD/svg10.dtd">
<svg version="1.0" xmlns="http://www.w3.org/2000/svg"
 width="255.000000pt" height="255.000000pt" viewBox="0 0 255.000000 255.000000"
 preserveAspectRatio="xMidYMid meet">
<metadata>
Created by potrace 1.11, written by Peter Selinger 2001-2013
</metadata>
<g transform="translate(0.000000,255.000000) scale(0.100000,-0.100000)"
fill="#000000" stroke="none">
<path d="M1157 2386 c-48 -20 -117 -63 -137 -85 -3 -4 -26 -6 -52 -7 -59 -1
-112 -39 -139 -98 -23 -52 -24 -92 -1 -137 17 -34 17 -36 -6 -111 -22 -72 -27
-80 -71 -106 -25 -16 -60 -44 -77 -61 l-32 -33 -24 54 c-14 29 -40 73 -59 98
-34 43 -35 47 -24 90 14 55 8 90 -14 90 -23 0 -37 -12 -45 -37 -8 -24 -26 -31
-26 -10 0 6 -11 25 -23 41 -44 54 -72 12 -48 -71 l9 -32 -31 20 c-91 55 -103
-20 -14 -81 34 -23 36 -28 35 -75 -3 -81 26 -209 74 -335 27 -71 34 -79 86
-102 59 -26 130 -9 189 45 13 11 25 18 28 16 2 -3 6 -34 9 -69 14 -180 18
-225 21 -230 2 -3 6 -29 9 -58 3 -29 9 -65 12 -79 4 -14 3 -24 -2 -22 -5 2
-43 21 -84 41 -92 45 -171 66 -234 62 -42 -2 -48 0 -56 21 -23 61 -91 50 -108
-17 -6 -21 -9 -51 -7 -66 2 -24 1 -25 -9 -8 -44 74 -86 94 -119 58 -21 -23
-21 -49 -3 -127 14 -57 13 -82 -2 -58 -18 28 -99 83 -124 83 -31 0 -58 -23
-58 -50 0 -32 85 -146 213 -284 20 -22 38 -48 38 -58 7 -100 26 -147 89 -228
47 -61 63 -75 138 -133 107 -81 225 -127 344 -135 103 -6 159 11 214 66 36 36
44 50 49 97 7 51 4 78 -12 122 -5 16 -3 15 18 -4 101 -90 248 -90 348 0 l23
22 -7 -25 c-37 -119 15 -228 124 -265 248 -82 662 177 697 437 4 24 14 50 23
59 51 51 180 203 214 254 32 47 34 76 7 100 -26 24 -63 13 -122 -36 -26 -21
-49 -39 -51 -39 -2 0 2 26 9 58 21 87 18 119 -11 138 -33 22 -60 11 -89 -38
l-24 -40 -7 53 c-8 61 -27 89 -61 89 -22 0 -54 -23 -54 -40 0 -5 -26 -8 -57
-7 -32 1 -75 -2 -96 -6 -44 -8 -139 -47 -192 -78 -35 -21 -37 -21 -32 -3 3 10
9 44 12 74 4 30 8 57 10 60 2 4 8 63 21 225 1 22 3 52 3 67 l1 27 27 -25 c66
-61 150 -75 217 -36 52 30 123 237 133 387 5 80 5 80 49 119 67 58 55 103 -20
72 l-36 -15 6 54 c5 47 4 56 -11 62 -21 7 -62 -37 -67 -72 -2 -16 -6 -13 -20
16 -42 86 -87 31 -59 -71 5 -19 0 -34 -24 -65 -16 -22 -41 -64 -54 -92 l-24
-52 -46 41 c-25 22 -61 47 -78 56 -18 9 -33 23 -33 31 -1 9 -11 46 -24 82 -22
64 -22 68 -6 99 30 57 14 135 -40 192 -23 25 -88 50 -120 46 -18 -2 -38 7 -61
26 -94 80 -230 105 -332 62z"/>
</g>
</svg>
